<?xml version="1.0" encoding="utf-8"?>
<!-- Generator: Adobe Illustrator 26.0.3, SVG Export Plug-In . SVG Version: 6.00 Build 0)  -->
<svg version="1.1" id="Writing" xmlns="http://www.w3.org/2000/svg" xmlns:xlink="http://www.w3.org/1999/xlink" x="0px" y="0px"
	 viewBox="0 0 595.3 841.9" style="enable-background:new 0 0 595.3 841.9;" xml:space="preserve">
<style type="text/css">
	.st0{fill-rule:evenodd;clip-rule:evenodd;fill:#499331;}
	.st1{fill:none;stroke:#FFFFFF;stroke-width:10.9926;stroke-linecap:round;stroke-linejoin:round;stroke-miterlimit:10;}
	.st2{fill:none;}
	.st3{font-family:'Arial-BoldMT';}
	.st4{font-size:40px;}
	.st5{fill:#499331;}
	.st6{font-size:56px;}
</style>
<path class="st0" d="M298.2,21.1l285.1,164.6v329.2L298.2,679.6L13.1,514.9V185.7L298.2,21.1L298.2,21.1z"/>
<path class="st1" d="M553.2,555.1l-313.2-534"/>
<path class="st1" d="M114.6,660.9l230.6-702"/>
<path class="st1" d="M239.9,679.6l324.7-536.3"/>
<path class="st1" d="M432.1,623.4l177.4-383.9"/>
<path class="st1" d="M376.5,660.9L-0.2,222.4"/>
<rect x="362.8" y="787.7" class="st2" width="300" height="52"/>
<text transform="matrix(1 0 0 1 362.7637 816.3693)" class="st3 st4">acquisition</text>
<g>
	<g>
		<path class="st5" d="M29.5,693.9h28.2c6.4,0,11.2,0.5,14.5,1.5c4.5,1.3,8.3,3.7,11.5,7c3.2,3.4,5.6,7.5,7.3,12.4
			c1.7,4.9,2.5,10.9,2.5,18.1c0,6.3-0.8,11.7-2.3,16.3c-1.9,5.6-4.6,10.1-8.2,13.5c-2.7,2.6-6.3,4.6-10.8,6.1
			c-3.4,1.1-8,1.6-13.7,1.6h-29L29.5,693.9L29.5,693.9z M44.9,706.8v50.6h11.5c4.3,0,7.4-0.2,9.3-0.7c2.5-0.6,4.6-1.7,6.2-3.2
			c1.7-1.5,3-4,4-7.4c1-3.4,1.6-8.1,1.6-14c0-5.9-0.5-10.4-1.6-13.6c-1-3.2-2.5-5.6-4.4-7.4c-1.9-1.8-4.3-3-7.1-3.6
			c-2.2-0.5-6.4-0.7-12.7-0.7L44.9,706.8L44.9,706.8z"/>
		<path class="st5" d="M106.5,693.9H122v41.4c0,6.6,0.2,10.8,0.6,12.8c0.7,3.1,2.2,5.6,4.7,7.5c2.5,1.9,5.9,2.8,10.2,2.8
			c4.4,0,7.7-0.9,9.9-2.7c2.2-1.8,3.6-4,4-6.6c0.5-2.6,0.7-6.9,0.7-13v-42.3h15.4V734c0,9.2-0.4,15.7-1.3,19.4
			c-0.8,3.8-2.4,7-4.6,9.6c-2.2,2.6-5.2,4.7-9,6.2c-3.8,1.5-8.7,2.3-14.7,2.3c-7.3,0-12.8-0.8-16.6-2.5c-3.8-1.7-6.8-3.9-8.9-6.6
			c-2.2-2.7-3.6-5.5-4.3-8.5c-1-4.4-1.5-10.8-1.5-19.4L106.5,693.9L106.5,693.9z"/>
		<path class="st5" d="M219.3,742.2v-12.9h33.3v30.4c-3.2,3.1-7.9,5.9-14.1,8.3c-6.1,2.4-12.3,3.6-18.6,3.6c-8,0-15-1.7-20.9-5
			c-5.9-3.4-10.4-8.2-13.4-14.4c-3-6.2-4.5-13-4.5-20.4c0-8,1.7-15,5-21.2c3.3-6.2,8.2-10.9,14.7-14.2c4.9-2.5,11-3.8,18.3-3.8
			c9.5,0,16.9,2,22.2,6c5.3,4,8.8,9.5,10.3,16.5l-15.3,2.9c-1.1-3.8-3.1-6.7-6.1-8.9c-3-2.2-6.7-3.3-11.1-3.3
			c-6.7,0-12.1,2.1-16.1,6.4c-4,4.3-6,10.6-6,19c0,9.1,2,15.9,6,20.4c4,4.5,9.3,6.8,15.8,6.8c3.2,0,6.5-0.6,9.7-1.9
			c3.2-1.3,6-2.8,8.4-4.6v-9.7L219.3,742.2L219.3,742.2z"/>
		<path class="st5" d="M262.9,745.4l15-1.5c0.9,5,2.7,8.7,5.5,11.1c2.8,2.4,6.5,3.5,11.2,3.5c5,0,8.7-1.1,11.2-3.2
			c2.5-2.1,3.8-4.6,3.8-7.4c0-1.8-0.5-3.3-1.6-4.6s-2.9-2.4-5.6-3.3c-1.8-0.6-5.9-1.7-12.4-3.3c-8.3-2.1-14.1-4.6-17.4-7.6
			c-4.7-4.2-7-9.3-7-15.4c0-3.9,1.1-7.5,3.3-10.9c2.2-3.4,5.4-6,9.5-7.7c4.2-1.8,9.2-2.7,15-2.7c9.6,0,16.8,2.1,21.7,6.3
			c4.8,4.2,7.4,9.8,7.6,16.8l-15.4,0.7c-0.7-3.9-2.1-6.8-4.2-8.5c-2.2-1.7-5.4-2.6-9.8-2.6c-4.5,0-8,0.9-10.5,2.8
			c-1.6,1.2-2.5,2.8-2.5,4.7c0,1.8,0.8,3.4,2.3,4.6c1.9,1.6,6.7,3.3,14.2,5.1c7.5,1.8,13.1,3.6,16.7,5.5c3.6,1.9,6.4,4.5,8.4,7.8
			c2,3.3,3.1,7.3,3.1,12.2c0,4.4-1.2,8.5-3.6,12.3c-2.4,3.8-5.9,6.7-10.3,8.5c-4.4,1.9-10,2.8-16.6,2.8c-9.7,0-17.1-2.2-22.3-6.7
			C267,760.5,263.9,754,262.9,745.4L262.9,745.4z"/>
		<path class="st5" d="M370,752.7l14.6,2.5c-1.9,5.4-4.8,9.4-8.9,12.2c-4,2.8-9.1,4.2-15.2,4.2c-9.6,0-16.8-3.1-21.4-9.4
			c-3.6-5-5.5-11.4-5.5-19.1c0-9.2,2.4-16.4,7.2-21.6c4.8-5.2,10.9-7.8,18.2-7.8c8.2,0,14.7,2.7,19.5,8.2c4.8,5.4,7,13.8,6.8,25
			h-36.7c0.1,4.3,1.3,7.7,3.5,10.1c2.3,2.4,5.1,3.6,8.4,3.6c2.3,0,4.2-0.6,5.8-1.9C368,757.5,369.2,755.5,370,752.7L370,752.7z
			 M370.8,737.9c-0.1-4.2-1.2-7.5-3.3-9.7c-2.1-2.2-4.6-3.3-7.6-3.3c-3.2,0-5.8,1.2-7.9,3.5c-2.1,2.3-3.1,5.5-3.1,9.5H370.8z"/>
		<path class="st5" d="M397.3,707.4v-13.6H412v13.6H397.3z M397.3,770.3v-55.4H412v55.4H397.3z"/>
		<path class="st5" d="M421.8,754.5l14.7-2.2c0.6,2.9,1.9,5,3.8,6.5c1.9,1.5,4.6,2.2,8,2.2c3.8,0,6.6-0.7,8.6-2.1
			c1.3-1,1.9-2.3,1.9-3.9c0-1.1-0.3-2-1-2.8c-0.7-0.7-2.4-1.3-4.9-1.9c-11.8-2.6-19.3-5-22.5-7.1c-4.4-3-6.6-7.1-6.6-12.5
			c0-4.8,1.9-8.8,5.7-12.1s9.7-4.9,17.6-4.9c7.6,0,13.2,1.2,16.9,3.7c3.7,2.5,6.2,6.1,7.6,10.9l-13.8,2.6c-0.6-2.2-1.7-3.8-3.4-5
			c-1.7-1.1-4-1.7-7.1-1.7c-3.9,0-6.6,0.5-8.3,1.6c-1.1,0.8-1.7,1.8-1.7,3c0,1,0.5,1.9,1.5,2.7c1.3,1,5.9,2.3,13.7,4.1
			c7.8,1.8,13.3,3.9,16.3,6.5c3.1,2.6,4.6,6.2,4.6,10.9c0,5.1-2.1,9.4-6.4,13.1c-4.2,3.6-10.5,5.5-18.8,5.5
			c-7.5,0-13.5-1.5-17.9-4.6C426.1,763.9,423.2,759.8,421.8,754.5L421.8,754.5z"/>
	</g>
	<rect x="484" y="714.7" class="st2" width="116" height="52"/>
	<text transform="matrix(1 0 0 1 484 754.8239)" class="st5 st3 st6">-</text>
</g>
</svg>
